<svg width="40" height="40" viewBox="0 0 40 40" fill="none" xmlns="http://www.w3.org/2000/svg">
<path d="M20.1167 36.6335C17.7667 36.6335 15.4 35.7335 13.6167 33.9502L6.06669 26.4002C4.23336 24.5669 3.26669 22.0335 3.38336 19.4502L3.78336 11.1002C3.96669 7.11688 7.11669 3.96688 11.1167 3.76688L19.45 3.36688C22.05 3.25021 24.5667 4.21688 26.4 6.05021L33.95 13.6002C37.5334 17.1835 37.5334 23.0335 33.95 26.6169L26.6334 33.9335C24.8334 35.7335 22.4834 36.6335 20.1167 36.6335ZM7.83336 24.6169L15.3834 32.1669C18 34.7835 22.25 34.7835 24.8667 32.1669L32.1834 24.8502C34.8 22.2335 34.8 17.9835 32.1834 15.3669L24.6167 7.83355C23.2834 6.50021 21.4667 5.80021 19.55 5.88355L11.2167 6.28355C8.51669 6.40021 6.40003 8.51688 6.26669 11.2169L5.86669 19.5669C5.78336 21.4335 6.50003 23.2835 7.83336 24.6169Z" fill="#2A2F3B"/>
<path d="M15.8333 21.2498C12.85 21.2498 10.4166 18.8165 10.4166 15.8332C10.4166 12.8498 12.85 10.4165 15.8333 10.4165C18.8166 10.4165 21.25 12.8498 21.25 15.8332C21.25 18.8165 18.8166 21.2498 15.8333 21.2498ZM15.8333 12.9165C14.2333 12.9165 12.9166 14.2332 12.9166 15.8332C12.9166 17.4332 14.2333 18.7498 15.8333 18.7498C17.4333 18.7498 18.75 17.4332 18.75 15.8332C18.75 14.2332 17.4333 12.9165 15.8333 12.9165Z" fill="#2A2F3B"/>
<path d="M21.6666 29.5834C21.3499 29.5834 21.0333 29.4667 20.7833 29.2167C20.2999 28.7334 20.2999 27.9334 20.7833 27.4501L27.4499 20.7834C27.9333 20.3001 28.7333 20.3001 29.2166 20.7834C29.6999 21.2667 29.6999 22.0667 29.2166 22.5501L22.5499 29.2167C22.2999 29.4667 21.9833 29.5834 21.6666 29.5834Z" fill="#2A2F3B"/>
</svg>
