<svg width="40" height="40" viewBox="0 0 40 40" fill="none" xmlns="http://www.w3.org/2000/svg">
<path d="M24.5001 37.9169H15.5001C7.26672 37.9169 3.76672 34.4002 3.76672 26.1835V18.7002C3.76672 18.0169 4.33339 17.4502 5.01672 17.4502C5.70006 17.4502 6.26672 18.0169 6.26672 18.7002V26.1835C6.26672 33.0002 8.68339 35.4169 15.5001 35.4169H24.4834C31.3001 35.4169 33.7167 33.0002 33.7167 26.1835V18.7002C33.7167 18.0169 34.2834 17.4502 34.9667 17.4502C35.6501 17.4502 36.2167 18.0169 36.2167 18.7002V26.1835C36.2334 34.4002 32.7167 37.9169 24.5001 37.9169Z" fill="#2A2F3B"/>
<path d="M20 21.2502C18.1666 21.2502 16.5 20.5335 15.3166 19.2168C14.1333 17.9002 13.5833 16.1835 13.7666 14.3502L14.8833 3.21683C14.95 2.5835 15.4833 2.0835 16.1333 2.0835H23.9166C24.5666 2.0835 25.1 2.56683 25.1666 3.21683L26.2833 14.3502C26.4666 16.1835 25.9166 17.9002 24.7333 19.2168C23.5 20.5335 21.8333 21.2502 20 21.2502ZM17.25 4.5835L16.25 14.6002C16.1333 15.7168 16.4666 16.7668 17.1666 17.5335C18.5833 19.1002 21.4166 19.1002 22.8333 17.5335C23.5333 16.7502 23.8666 15.7002 23.75 14.6002L22.75 4.5835H17.25Z" fill="#2A2F3B"/>
<path d="M30.5166 21.2502C27.1333 21.2502 24.1166 18.5168 23.7666 15.1502L22.6 3.46683C22.5666 3.11683 22.6833 2.76683 22.9166 2.50016C23.15 2.2335 23.4833 2.0835 23.85 2.0835H28.9333C33.8333 2.0835 36.1166 4.1335 36.8 9.16683L37.2666 13.8002C37.4666 15.7668 36.8666 17.6335 35.5833 19.0502C34.3 20.4668 32.5 21.2502 30.5166 21.2502ZM25.2333 4.5835L26.2666 14.9002C26.4833 16.9835 28.4166 18.7502 30.5166 18.7502C31.7833 18.7502 32.9166 18.2668 33.7333 17.3835C34.5333 16.5002 34.9 15.3168 34.7833 14.0502L34.3166 9.46683C33.8 5.70016 32.5833 4.5835 28.9333 4.5835H25.2333Z" fill="#2A2F3B"/>
<path d="M9.40004 21.2502C7.4167 21.2502 5.6167 20.4668 4.33337 19.0502C3.05004 17.6335 2.45004 15.7668 2.65004 13.8002L3.10004 9.21683C3.80004 4.1335 6.08337 2.0835 10.9834 2.0835H16.0667C16.4167 2.0835 16.75 2.2335 17 2.50016C17.25 2.76683 17.35 3.11683 17.3167 3.46683L16.15 15.1502C15.8 18.5168 12.7834 21.2502 9.40004 21.2502ZM10.9834 4.5835C7.33337 4.5835 6.1167 5.6835 5.58337 9.50016L5.13337 14.0502C5.00004 15.3168 5.38337 16.5002 6.18337 17.3835C6.98337 18.2668 8.1167 18.7502 9.40004 18.7502C11.5 18.7502 13.45 16.9835 13.65 14.9002L14.6834 4.5835H10.9834Z" fill="#2A2F3B"/>
<path d="M24.1667 37.9168H15.8334C15.15 37.9168 14.5834 37.3502 14.5834 36.6668V32.5002C14.5834 29.0002 16.5 27.0835 20 27.0835C23.5 27.0835 25.4167 29.0002 25.4167 32.5002V36.6668C25.4167 37.3502 24.85 37.9168 24.1667 37.9168ZM17.0834 35.4168H22.9167V32.5002C22.9167 30.4002 22.1 29.5835 20 29.5835C17.9 29.5835 17.0834 30.4002 17.0834 32.5002V35.4168Z" fill="#2A2F3B"/>
</svg>
