<svg width="40" height="40" viewBox="0 0 40 40" fill="none" xmlns="http://www.w3.org/2000/svg">
<path d="M31.6667 14.5835C28.2167 14.5835 25.4167 11.7835 25.4167 8.3335C25.4167 4.8835 28.2167 2.0835 31.6667 2.0835C35.1167 2.0835 37.9167 4.8835 37.9167 8.3335C37.9167 11.7835 35.1167 14.5835 31.6667 14.5835ZM31.6667 4.5835C29.6001 4.5835 27.9167 6.26683 27.9167 8.3335C27.9167 10.4002 29.6001 12.0835 31.6667 12.0835C33.7334 12.0835 35.4167 10.4002 35.4167 8.3335C35.4167 6.26683 33.7334 4.5835 31.6667 4.5835Z" fill="#2A2F3B"/>
<path d="M20.0001 22.9165H11.6667C10.9834 22.9165 10.4167 22.3498 10.4167 21.6665C10.4167 20.9832 10.9834 20.4165 11.6667 20.4165H20.0001C20.6834 20.4165 21.2501 20.9832 21.2501 21.6665C21.2501 22.3498 20.6834 22.9165 20.0001 22.9165Z" fill="#2A2F3B"/>
<path d="M26.6667 29.5835H11.6667C10.9834 29.5835 10.4167 29.0168 10.4167 28.3335C10.4167 27.6502 10.9834 27.0835 11.6667 27.0835H26.6667C27.3501 27.0835 27.9167 27.6502 27.9167 28.3335C27.9167 29.0168 27.3501 29.5835 26.6667 29.5835Z" fill="#2A2F3B"/>
<path d="M24.9999 37.9168H14.9999C5.94992 37.9168 2.08325 34.0502 2.08325 25.0002V15.0002C2.08325 5.95016 5.94992 2.0835 14.9999 2.0835H23.3333C24.0166 2.0835 24.5833 2.65016 24.5833 3.3335C24.5833 4.01683 24.0166 4.5835 23.3333 4.5835H14.9999C7.31659 4.5835 4.58325 7.31683 4.58325 15.0002V25.0002C4.58325 32.6835 7.31659 35.4168 14.9999 35.4168H24.9999C32.6833 35.4168 35.4166 32.6835 35.4166 25.0002V16.6668C35.4166 15.9835 35.9832 15.4168 36.6666 15.4168C37.3499 15.4168 37.9166 15.9835 37.9166 16.6668V25.0002C37.9166 34.0502 34.0499 37.9168 24.9999 37.9168Z" fill="#2A2F3B"/>
</svg>
