<svg width="40" height="40" viewBox="0 0 40 40" fill="none" xmlns="http://www.w3.org/2000/svg">
<path d="M20 37.9168C10.1167 37.9168 2.08337 29.8835 2.08337 20.0002C2.08337 10.1168 10.1167 2.0835 20 2.0835C29.8834 2.0835 37.9167 10.1168 37.9167 20.0002C37.9167 29.8835 29.8834 37.9168 20 37.9168ZM20 4.5835C11.5 4.5835 4.58337 11.5002 4.58337 20.0002C4.58337 28.5002 11.5 35.4168 20 35.4168C28.5 35.4168 35.4167 28.5002 35.4167 20.0002C35.4167 11.5002 28.5 4.5835 20 4.5835Z" fill="#2A2F3B"/>
<path d="M26.1834 26.5499C25.9667 26.5499 25.75 26.4999 25.55 26.3666L20.3834 23.2833C19.1 22.5166 18.15 20.8333 18.15 19.3499V12.5166C18.15 11.8333 18.7167 11.2666 19.4 11.2666C20.0834 11.2666 20.65 11.8333 20.65 12.5166V19.3499C20.65 19.9499 21.15 20.8333 21.6667 21.1333L26.8334 24.2166C27.4334 24.5666 27.6167 25.3333 27.2667 25.9333C27.0167 26.3333 26.6 26.5499 26.1834 26.5499Z" fill="#2A2F3B"/>
</svg>
