<svg width="35" height="36" viewBox="0 0 35 36" fill="none" xmlns="http://www.w3.org/2000/svg">
<path d="M12.6 17.2833C12.55 17.2833 12.5167 17.2833 12.4667 17.2833C12.3834 17.2667 12.2667 17.2667 12.1667 17.2833C7.33335 17.1333 3.68335 13.3333 3.68335 8.65C3.68335 3.88333 7.56668 0 12.3334 0C17.1 0 20.9833 3.88333 20.9833 8.65C20.9667 13.3333 17.3 17.1333 12.65 17.2833C12.6333 17.2833 12.6167 17.2833 12.6 17.2833ZM12.3334 2.5C8.95002 2.5 6.18335 5.26667 6.18335 8.65C6.18335 11.9833 8.78335 14.6667 12.1 14.7833C12.2 14.7667 12.4167 14.7667 12.6334 14.7833C15.9 14.6333 18.4667 11.95 18.4833 8.65C18.4833 5.26667 15.7167 2.5 12.3334 2.5Z" fill="#2A2F3B"/>
<path d="M24.8999 17.4997C24.8499 17.4997 24.7999 17.4997 24.7499 17.483C24.0666 17.5497 23.3666 17.0663 23.2999 16.383C23.2333 15.6997 23.6499 15.083 24.3333 14.9997C24.5333 14.983 24.7499 14.983 24.9333 14.983C27.3666 14.8497 29.2666 12.8497 29.2666 10.3997C29.2666 7.86634 27.2166 5.81634 24.6833 5.81634C23.9999 5.83301 23.4333 5.26634 23.4333 4.58301C23.4333 3.89967 23.9999 3.33301 24.6833 3.33301C28.5833 3.33301 31.7666 6.51634 31.7666 10.4163C31.7666 14.2497 28.7666 17.3497 24.9499 17.4997C24.9333 17.4997 24.9166 17.4997 24.8999 17.4997Z" fill="#2A2F3B"/>
<path d="M12.6167 35.4997C9.35 35.4997 6.06667 34.6663 3.58333 32.9997C1.26667 31.4663 0 29.3663 0 27.083C0 24.7997 1.26667 22.683 3.58333 21.133C8.58333 17.8163 16.6833 17.8163 21.65 21.133C23.95 22.6663 25.2333 24.7663 25.2333 27.0497C25.2333 29.333 23.9667 31.4497 21.65 32.9997C19.15 34.6663 15.8833 35.4997 12.6167 35.4997ZM4.96667 23.233C3.36667 24.2997 2.5 25.6663 2.5 27.0997C2.5 28.5163 3.38333 29.883 4.96667 30.933C9.11667 33.7163 16.1167 33.7163 20.2667 30.933C21.8667 29.8663 22.7333 28.4997 22.7333 27.0663C22.7333 25.6497 21.85 24.283 20.2667 23.233C16.1167 20.4663 9.11667 20.4663 4.96667 23.233Z" fill="#2A2F3B"/>
<path d="M27.8999 32.4999C27.3166 32.4999 26.7999 32.0999 26.6833 31.4999C26.5499 30.8165 26.9833 30.1665 27.6499 30.0165C28.6999 29.7999 29.6666 29.3832 30.4166 28.7999C31.3666 28.0832 31.8833 27.1832 31.8833 26.2332C31.8833 25.2832 31.3666 24.3832 30.4333 23.6832C29.6999 23.1165 28.7833 22.7165 27.6999 22.4665C27.0333 22.3165 26.5999 21.6499 26.7499 20.9665C26.8999 20.2999 27.5666 19.8665 28.2499 20.0165C29.6833 20.3332 30.9333 20.8999 31.9499 21.6832C33.4999 22.8499 34.3833 24.4999 34.3833 26.2332C34.3833 27.9665 33.4833 29.6165 31.9333 30.7999C30.8999 31.5999 29.5999 32.1832 28.1666 32.4665C28.0666 32.4999 27.9833 32.4999 27.8999 32.4999Z" fill="#2A2F3B"/>
</svg>
